<?xml version="1.0" encoding="UTF-8"?>
<svg xmlns="http://www.w3.org/2000/svg" xmlns:xlink="http://www.w3.org/1999/xlink" viewBox="0 0 16 16" width="16px" height="16px">
<g id="surface35440253">
<path style=" stroke:none;fill-rule:nonzero;fill:rgb(98.039216%,19.215687%,29.019609%);fill-opacity:1;" d="M 4.199219 15 L 4.199219 1 L 7 1 L 7 14.601562 Z M 4.199219 15 "/>
<path style=" stroke:none;fill-rule:nonzero;fill:rgb(98.039216%,19.215687%,29.019609%);fill-opacity:1;" d="M 4.199219 15.199219 C 4.152344 15.199219 4.105469 15.183594 4.070312 15.152344 C 4.023438 15.113281 4 15.058594 4 15 L 4 1 C 4 0.890625 4.089844 0.800781 4.199219 0.800781 L 7 0.800781 C 7.109375 0.800781 7.199219 0.890625 7.199219 1 L 7.199219 14.601562 C 7.199219 14.699219 7.125 14.785156 7.027344 14.796875 L 4.226562 15.199219 C 4.21875 15.199219 4.210938 15.199219 4.199219 15.199219 Z M 4.398438 1.199219 L 4.398438 14.769531 L 6.800781 14.425781 L 6.800781 1.199219 Z M 4.398438 1.199219 "/>
<path style=" stroke:none;fill-rule:nonzero;fill:rgb(98.039216%,19.215687%,29.019609%);fill-opacity:1;" d="M 9 1 L 9 7.199219 L 11.800781 15 L 11.800781 1 Z M 9 1 "/>
<path style=" stroke:none;fill-rule:nonzero;fill:rgb(98.039216%,19.215687%,29.019609%);fill-opacity:1;" d="M 11.800781 15.199219 C 11.71875 15.199219 11.640625 15.148438 11.613281 15.066406 L 8.8125 7.269531 C 8.804688 7.246094 8.800781 7.222656 8.800781 7.199219 L 8.800781 1 C 8.800781 0.890625 8.890625 0.800781 9 0.800781 L 11.800781 0.800781 C 11.910156 0.800781 12 0.890625 12 1 L 12 15 C 12 15.097656 11.929688 15.179688 11.835938 15.195312 C 11.824219 15.199219 11.8125 15.199219 11.800781 15.199219 Z M 9.199219 7.164062 L 11.601562 13.851562 L 11.601562 1.199219 L 9.199219 1.199219 Z M 9.199219 7.164062 "/>
<path style=" stroke:none;fill-rule:nonzero;fill:rgb(98.039216%,19.215687%,29.019609%);fill-opacity:1;" d="M 7 1 L 4.210938 1 L 8.800781 14.601562 L 11.800781 15 Z M 7 1 "/>
<path style=" stroke:none;fill-rule:nonzero;fill:rgb(98.039216%,19.215687%,29.019609%);fill-opacity:1;" d="M 11.800781 15.199219 C 11.792969 15.199219 11.78125 15.199219 11.773438 15.199219 L 8.773438 14.796875 C 8.699219 14.789062 8.636719 14.734375 8.609375 14.664062 L 4.019531 1.0625 C 4 1.003906 4.011719 0.9375 4.046875 0.882812 C 4.085938 0.832031 4.144531 0.800781 4.210938 0.800781 L 7 0.800781 C 7.085938 0.800781 7.160156 0.855469 7.1875 0.933594 L 11.988281 14.933594 C 12.011719 15 12 15.074219 11.953125 15.125 C 11.917969 15.171875 11.859375 15.199219 11.800781 15.199219 Z M 8.949219 14.417969 L 11.507812 14.757812 L 6.855469 1.199219 L 4.488281 1.199219 Z M 8.949219 14.417969 "/>
</g>
</svg>
